<svg width="317" height="41" viewBox="0 0 317 41" fill="none" xmlns="http://www.w3.org/2000/svg">
<g filter="url(#filter0_d_88_204)">
<path d="M16.472 12.648C18.0507 12.7973 19.2987 13.3413 20.216 14.28C21.1547 15.1973 21.624 16.488 21.624 18.152C21.624 20.264 20.8987 21.9387 19.448 23.176C17.9973 24.392 16.0027 25 13.464 25H4.696V23.176L6.296 22.888C6.68 22.824 6.92533 22.7173 7.032 22.568C7.16 22.3973 7.224 22.0987 7.224 21.672V5.288C7.224 4.86133 7.16 4.57333 7.032 4.424C6.92533 4.25333 6.68 4.136 6.296 4.072L4.696 3.784V1.96H12.888C17.688 1.96 20.088 3.72 20.088 7.24C20.088 8.52 19.7573 9.672 19.096 10.696C18.4347 11.6987 17.56 12.3493 16.472 12.648ZM17.208 8.136C17.208 6.64267 16.8027 5.61867 15.992 5.064C15.1813 4.488 13.8907 4.2 12.12 4.2H9.848V11.944H12.536C14.2 11.944 15.3947 11.6667 16.12 11.112C16.8453 10.5573 17.208 9.56533 17.208 8.136ZM13.432 22.76C15.2453 22.76 16.5787 22.44 17.432 21.8C18.3067 21.16 18.744 20.072 18.744 18.536C18.744 16.9573 18.296 15.8267 17.4 15.144C16.5253 14.4613 15.2027 14.12 13.432 14.12H9.848V22.76H13.432ZM34.0735 9.32C35.0548 9.32 35.9082 9.52267 36.6335 9.928L36.3775 13.96H34.5215L34.1695 11.944C33.9135 11.7733 33.5188 11.688 32.9855 11.688C32.1535 11.688 31.3855 12.0613 30.6815 12.808C29.9775 13.5547 29.4975 14.4507 29.2415 15.496V21.864C29.2415 22.312 29.2842 22.6213 29.3695 22.792C29.4762 22.9413 29.6788 23.0267 29.9775 23.048L32.2495 23.272V25H24.2495V23.272L25.9455 23.048C26.2655 23.0267 26.4682 22.9413 26.5535 22.792C26.6388 22.6213 26.6815 22.312 26.6815 21.864V12.712C26.6815 12.2427 26.6388 11.9333 26.5535 11.784C26.4682 11.6133 26.2655 11.5173 25.9455 11.496L24.3135 11.304V9.64H28.7935L29.1135 12.68C29.5828 11.7413 30.2762 10.952 31.1935 10.312C32.1108 9.65067 33.0708 9.32 34.0735 9.32ZM41.326 5.928C40.6647 5.928 40.206 5.78933 39.95 5.512C39.694 5.23467 39.566 4.776 39.566 4.136C39.566 3.47467 39.7153 2.99467 40.014 2.696C40.334 2.39733 40.8353 2.248 41.518 2.248C42.1793 2.248 42.6273 2.39733 42.862 2.696C43.118 2.97333 43.246 3.464 43.246 4.168C43.246 4.82933 43.0967 5.288 42.798 5.544C42.4993 5.8 42.0087 5.928 41.326 5.928ZM38.126 23.272L39.758 23.048C40.078 23.0267 40.2807 22.9413 40.366 22.792C40.4513 22.6213 40.494 22.312 40.494 21.864V12.712C40.494 12.2427 40.4513 11.9333 40.366 11.784C40.2807 11.6133 40.078 11.5173 39.758 11.496L38.126 11.304V9.64H43.054V21.864C43.054 22.312 43.0967 22.6213 43.182 22.792C43.2887 22.9413 43.4913 23.0267 43.79 23.048L45.454 23.272V25H38.126V23.272ZM63.4013 23.272V25H58.8253L58.5693 22.888C57.2253 24.5093 55.5613 25.32 53.5773 25.32C51.7213 25.32 50.2493 24.6587 49.1613 23.336C48.0946 22.0133 47.5613 20.2 47.5613 17.896C47.5613 16.296 47.8813 14.8453 48.5213 13.544C49.1613 12.2213 50.0466 11.1867 51.1773 10.44C52.3079 9.69333 53.5666 9.32 54.9533 9.32C56.2119 9.32 57.3746 9.53333 58.4413 9.96V3.112C58.4413 2.664 58.3879 2.36533 58.2813 2.216C58.1746 2.04533 57.9613 1.94933 57.6413 1.928L55.7533 1.736V0.039999H61.0013V21.864C61.0013 22.312 61.0439 22.6213 61.1293 22.792C61.2146 22.9413 61.4173 23.0267 61.7373 23.048L63.4013 23.272ZM54.4413 23.176C55.2519 23.176 55.9986 22.952 56.6813 22.504C57.3853 22.0347 57.9719 21.48 58.4413 20.84V12.616C57.2253 11.8267 55.8066 11.432 54.1853 11.432C52.8839 11.432 51.9133 11.9227 51.2733 12.904C50.6546 13.8853 50.3453 15.4427 50.3453 17.576C50.3453 19.368 50.7079 20.7547 51.4333 21.736C52.1586 22.696 53.1613 23.176 54.4413 23.176ZM79.3913 10.344C78.6446 10.856 77.8019 11.1333 76.8633 11.176C77.6953 12.2 78.1113 13.416 78.1113 14.824C78.1113 16.0187 77.8126 17.0853 77.2153 18.024C76.6393 18.9627 75.8393 19.6987 74.8153 20.232C73.7913 20.744 72.6393 21 71.3593 21C71.1246 21 70.7726 20.9787 70.3033 20.936L69.4073 22.92C69.4073 23.2613 69.5993 23.464 69.9833 23.528C71.1993 23.7627 72.3513 23.9547 73.4392 24.104L75.8073 24.488C76.9166 24.6587 77.7379 24.9893 78.2713 25.48C78.8259 25.992 79.1033 26.696 79.1033 27.592C79.1033 28.552 78.7833 29.448 78.1433 30.28C77.5033 31.112 76.6073 31.7733 75.4553 32.264C74.3033 32.7547 73.0019 33 71.5513 33C70.1433 33 68.8419 32.8293 67.6473 32.488C66.4526 32.1467 65.5353 31.688 64.8953 31.112L65.5673 27.176H67.3593L67.3913 29.672C67.8606 30.0133 68.5433 30.2907 69.4393 30.504C70.3353 30.7387 71.3273 30.856 72.4153 30.856C73.7379 30.856 74.7619 30.6107 75.4873 30.12C76.2126 29.6507 76.5753 28.9893 76.5753 28.136C76.5753 27.7307 76.4153 27.4107 76.0953 27.176C75.7966 26.9627 75.3166 26.8027 74.6553 26.696L73.5673 26.536C71.0499 26.1307 69.5566 25.8853 69.0873 25.8C68.3406 25.6507 67.7859 25.384 67.4233 25C67.0819 24.5947 66.9113 24.0507 66.9113 23.368L68.7033 20.552C67.5939 20.1467 66.7406 19.4853 66.1432 18.568C65.5459 17.6507 65.2473 16.52 65.2473 15.176C65.2473 14.0027 65.5246 12.9787 66.0793 12.104C66.6553 11.208 67.4553 10.5147 68.4793 10.024C69.5246 9.53333 70.7299 9.288 72.0953 9.288C74.1006 9.288 75.5193 9.256 76.3513 9.192C77.1833 9.128 78.1966 8.936 79.3913 8.616V10.344ZM71.9033 19.112C73.1619 19.112 74.0579 18.7813 74.5913 18.12C75.1459 17.4587 75.4233 16.4453 75.4233 15.08C75.4233 13.8 75.0926 12.8187 74.4313 12.136C73.7699 11.432 72.7673 11.08 71.4233 11.08C70.0579 11.08 69.1299 11.4 68.6393 12.04C68.1699 12.6587 67.9353 13.6933 67.9353 15.144C67.9353 16.424 68.2659 17.4053 68.9273 18.088C69.5886 18.7707 70.5806 19.112 71.9033 19.112ZM88.5173 23.144C89.9039 23.144 91.5786 22.8453 93.5413 22.248L93.9893 23.848C93.2213 24.232 92.2506 24.5733 91.0773 24.872C89.9253 25.1707 88.7733 25.32 87.6213 25.32C85.4453 25.32 83.8026 24.6587 82.6933 23.336C81.6053 21.992 81.0613 20.2 81.0613 17.96C81.0613 15.3573 81.6693 13.2667 82.8853 11.688C84.1013 10.1093 85.8719 9.32 88.1973 9.32C89.7546 9.32 90.9599 9.62933 91.8133 10.248C92.6879 10.8667 93.2853 11.752 93.6053 12.904C93.9466 14.056 94.1173 15.5173 94.1173 17.288L83.8453 17.928C83.8879 19.656 84.3039 20.9573 85.0933 21.832C85.9039 22.7067 87.0453 23.144 88.5173 23.144ZM87.7812 11.432C86.8426 11.432 86.0959 11.5813 85.5413 11.88C85.0079 12.1573 84.6133 12.6267 84.3573 13.288C84.1013 13.9493 83.9306 14.888 83.8453 16.104L91.4933 15.432C91.4933 14.152 91.2053 13.1707 90.6293 12.488C90.0746 11.784 89.1253 11.432 87.7812 11.432ZM108.722 12.648C110.301 12.7973 111.549 13.3413 112.466 14.28C113.405 15.1973 113.874 16.488 113.874 18.152C113.874 20.264 113.149 21.9387 111.698 23.176C110.247 24.392 108.253 25 105.714 25H96.946V23.176L98.546 22.888C98.93 22.824 99.1753 22.7173 99.282 22.568C99.41 22.3973 99.474 22.0987 99.474 21.672V5.288C99.474 4.86133 99.41 4.57333 99.282 4.424C99.1753 4.25333 98.93 4.136 98.546 4.072L96.946 3.784V1.96H105.138C109.938 1.96 112.338 3.72 112.338 7.24C112.338 8.52 112.007 9.672 111.346 10.696C110.685 11.6987 109.81 12.3493 108.722 12.648ZM109.458 8.136C109.458 6.64267 109.053 5.61867 108.242 5.064C107.431 4.488 106.141 4.2 104.37 4.2H102.098V11.944H104.786C106.45 11.944 107.645 11.6667 108.37 11.112C109.095 10.5573 109.458 9.56533 109.458 8.136ZM105.682 22.76C107.495 22.76 108.829 22.44 109.682 21.8C110.557 21.16 110.994 20.072 110.994 18.536C110.994 16.9573 110.546 15.8267 109.65 15.144C108.775 14.4613 107.453 14.12 105.682 14.12H102.098V22.76H105.682ZM123.924 23.144C125.31 23.144 126.985 22.8453 128.948 22.248L129.396 23.848C128.628 24.232 127.657 24.5733 126.484 24.872C125.332 25.1707 124.18 25.32 123.028 25.32C120.852 25.32 119.209 24.6587 118.1 23.336C117.012 21.992 116.468 20.2 116.468 17.96C116.468 15.3573 117.076 13.2667 118.292 11.688C119.508 10.1093 121.278 9.32 123.604 9.32C125.161 9.32 126.366 9.62933 127.22 10.248C128.094 10.8667 128.692 11.752 129.012 12.904C129.353 14.056 129.524 15.5173 129.524 17.288L119.252 17.928C119.294 19.656 119.71 20.9573 120.5 21.832C121.31 22.7067 122.452 23.144 123.924 23.144ZM123.188 11.432C122.249 11.432 121.502 11.5813 120.948 11.88C120.414 12.1573 120.02 12.6267 119.764 13.288C119.508 13.9493 119.337 14.888 119.252 16.104L126.9 15.432C126.9 14.152 126.612 13.1707 126.036 12.488C125.481 11.784 124.532 11.432 123.188 11.432ZM147.552 9.64V11.304L146.144 11.496C145.739 11.56 145.43 11.848 145.216 12.36L138.88 29.128C137.963 31.7093 136.363 33 134.08 33C133.462 33 132.939 32.9573 132.512 32.872C132.107 32.808 131.67 32.712 131.2 32.584L130.88 30.664C131.179 30.7493 131.563 30.8133 132.032 30.856C132.523 30.92 132.907 30.952 133.184 30.952C134.934 30.952 136.16 30.024 136.864 28.168L137.76 25.736L132.64 12.392C132.534 12.0933 132.406 11.88 132.256 11.752C132.107 11.6027 131.904 11.5173 131.648 11.496L130.272 11.304V9.64H137.728V11.272L135.872 11.496C135.723 11.5173 135.595 11.5707 135.488 11.656C135.403 11.7413 135.36 11.848 135.36 11.976C135.36 12.0827 135.435 12.36 135.584 12.808L138.912 21.832L139.296 22.984L139.392 21.832L142.72 12.808C142.848 12.424 142.912 12.1467 142.912 11.976C142.912 11.848 142.859 11.7413 142.752 11.656C142.667 11.5707 142.56 11.5173 142.432 11.496L140.544 11.272V9.64H147.552ZM155.223 25.32C153.068 25.32 151.383 24.6373 150.167 23.272C148.951 21.9067 148.343 20.0933 148.343 17.832C148.343 16.1893 148.673 14.728 149.335 13.448C149.996 12.1467 150.924 11.1333 152.119 10.408C153.313 9.68267 154.7 9.32 156.279 9.32C158.412 9.32 160.087 10.0027 161.303 11.368C162.54 12.712 163.159 14.4827 163.159 16.68C163.159 18.3227 162.828 19.8053 162.167 21.128C161.527 22.4293 160.599 23.4533 159.383 24.2C158.188 24.9467 156.801 25.32 155.223 25.32ZM156.183 23.176C157.74 23.176 158.828 22.7173 159.447 21.8C160.065 20.8613 160.375 19.368 160.375 17.32C160.375 15.4213 159.937 13.9707 159.063 12.968C158.188 11.944 156.94 11.432 155.319 11.432C153.761 11.432 152.673 11.9013 152.055 12.84C151.436 13.7787 151.127 15.272 151.127 17.32C151.127 19.2613 151.564 20.7227 152.439 21.704C153.313 22.6853 154.561 23.176 156.183 23.176ZM183.318 23.272V25H178.358V14.76C178.358 13.7787 178.08 13.0213 177.526 12.488C176.971 11.9547 176.15 11.688 175.062 11.688C174.144 11.688 173.302 11.9227 172.534 12.392C171.766 12.84 171.168 13.4373 170.742 14.184V21.864C170.742 22.312 170.784 22.6213 170.87 22.792C170.976 22.9413 171.179 23.0267 171.478 23.048L173.238 23.272V25H165.814V23.272L167.446 23.048C167.766 23.0267 167.968 22.9413 168.054 22.792C168.139 22.6213 168.182 22.312 168.182 21.864V12.488C168.182 12.1253 168.128 11.8693 168.022 11.72C167.915 11.5707 167.702 11.4853 167.382 11.464L165.814 11.304V9.64H170.358L170.646 12.008C171.414 11.1333 172.235 10.472 173.11 10.024C174.006 9.55467 174.987 9.32 176.054 9.32C177.611 9.32 178.806 9.74667 179.638 10.6C180.491 11.4533 180.918 12.552 180.918 13.896V21.864C180.918 22.312 180.96 22.6213 181.046 22.792C181.131 22.9413 181.334 23.0267 181.654 23.048L183.318 23.272ZM201.245 23.272V25H196.669L196.413 22.888C195.069 24.5093 193.405 25.32 191.421 25.32C189.565 25.32 188.093 24.6587 187.005 23.336C185.938 22.0133 185.405 20.2 185.405 17.896C185.405 16.296 185.725 14.8453 186.365 13.544C187.005 12.2213 187.89 11.1867 189.021 10.44C190.152 9.69333 191.41 9.32 192.797 9.32C194.056 9.32 195.218 9.53333 196.285 9.96V3.112C196.285 2.664 196.232 2.36533 196.125 2.216C196.018 2.04533 195.805 1.94933 195.485 1.928L193.597 1.736V0.039999H198.845V21.864C198.845 22.312 198.888 22.6213 198.973 22.792C199.058 22.9413 199.261 23.0267 199.581 23.048L201.245 23.272ZM192.285 23.176C193.096 23.176 193.842 22.952 194.525 22.504C195.229 22.0347 195.816 21.48 196.285 20.84V12.616C195.069 11.8267 193.65 11.432 192.029 11.432C190.728 11.432 189.757 11.9227 189.117 12.904C188.498 13.8853 188.189 15.4427 188.189 17.576C188.189 19.368 188.552 20.7547 189.277 21.736C190.002 22.696 191.005 23.176 192.285 23.176ZM215.347 12.648C216.926 12.7973 218.174 13.3413 219.091 14.28C220.03 15.1973 220.499 16.488 220.499 18.152C220.499 20.264 219.774 21.9387 218.323 23.176C216.872 24.392 214.878 25 212.339 25H203.571V23.176L205.171 22.888C205.555 22.824 205.8 22.7173 205.907 22.568C206.035 22.3973 206.099 22.0987 206.099 21.672V5.288C206.099 4.86133 206.035 4.57333 205.907 4.424C205.8 4.25333 205.555 4.136 205.171 4.072L203.571 3.784V1.96H211.763C216.563 1.96 218.963 3.72 218.963 7.24C218.963 8.52 218.632 9.672 217.971 10.696C217.31 11.6987 216.435 12.3493 215.347 12.648ZM216.083 8.136C216.083 6.64267 215.678 5.61867 214.867 5.064C214.056 4.488 212.766 4.2 210.995 4.2H208.723V11.944H211.411C213.075 11.944 214.27 11.6667 214.995 11.112C215.72 10.5573 216.083 9.56533 216.083 8.136ZM212.307 22.76C214.12 22.76 215.454 22.44 216.307 21.8C217.182 21.16 217.619 20.072 217.619 18.536C217.619 16.9573 217.171 15.8267 216.275 15.144C215.4 14.4613 214.078 14.12 212.307 14.12H208.723V22.76H212.307ZM229.973 25.32C227.818 25.32 226.133 24.6373 224.917 23.272C223.701 21.9067 223.093 20.0933 223.093 17.832C223.093 16.1893 223.423 14.728 224.085 13.448C224.746 12.1467 225.674 11.1333 226.869 10.408C228.063 9.68267 229.45 9.32 231.029 9.32C233.162 9.32 234.837 10.0027 236.053 11.368C237.29 12.712 237.909 14.4827 237.909 16.68C237.909 18.3227 237.578 19.8053 236.917 21.128C236.277 22.4293 235.349 23.4533 234.133 24.2C232.938 24.9467 231.551 25.32 229.973 25.32ZM230.933 23.176C232.49 23.176 233.578 22.7173 234.197 21.8C234.815 20.8613 235.125 19.368 235.125 17.32C235.125 15.4213 234.687 13.9707 233.813 12.968C232.938 11.944 231.69 11.432 230.069 11.432C228.511 11.432 227.423 11.9013 226.805 12.84C226.186 13.7787 225.877 15.272 225.877 17.32C225.877 19.2613 226.314 20.7227 227.189 21.704C228.063 22.6853 229.311 23.176 230.933 23.176ZM250.324 9.32C251.305 9.32 252.158 9.52267 252.884 9.928L252.628 13.96H250.772L250.42 11.944C250.164 11.7733 249.769 11.688 249.236 11.688C248.404 11.688 247.636 12.0613 246.932 12.808C246.228 13.5547 245.748 14.4507 245.492 15.496V21.864C245.492 22.312 245.534 22.6213 245.62 22.792C245.726 22.9413 245.929 23.0267 246.228 23.048L248.5 23.272V25H240.5V23.272L242.196 23.048C242.516 23.0267 242.718 22.9413 242.804 22.792C242.889 22.6213 242.932 22.312 242.932 21.864V12.712C242.932 12.2427 242.889 11.9333 242.804 11.784C242.718 11.6133 242.516 11.5173 242.196 11.496L240.564 11.304V9.64H245.044L245.364 12.68C245.833 11.7413 246.526 10.952 247.444 10.312C248.361 9.65067 249.321 9.32 250.324 9.32ZM270.12 23.272V25H265.544L265.288 22.888C263.944 24.5093 262.28 25.32 260.296 25.32C258.44 25.32 256.968 24.6587 255.88 23.336C254.813 22.0133 254.28 20.2 254.28 17.896C254.28 16.296 254.6 14.8453 255.24 13.544C255.88 12.2213 256.765 11.1867 257.896 10.44C259.027 9.69333 260.285 9.32 261.672 9.32C262.931 9.32 264.093 9.53333 265.16 9.96V3.112C265.16 2.664 265.107 2.36533 265 2.216C264.893 2.04533 264.68 1.94933 264.36 1.928L262.472 1.736V0.039999H267.72V21.864C267.72 22.312 267.763 22.6213 267.848 22.792C267.933 22.9413 268.136 23.0267 268.456 23.048L270.12 23.272ZM261.16 23.176C261.971 23.176 262.717 22.952 263.4 22.504C264.104 22.0347 264.691 21.48 265.16 20.84V12.616C263.944 11.8267 262.525 11.432 260.904 11.432C259.603 11.432 258.632 11.9227 257.992 12.904C257.373 13.8853 257.064 15.4427 257.064 17.576C257.064 19.368 257.427 20.7547 258.152 21.736C258.877 22.696 259.88 23.176 261.16 23.176ZM279.486 23.144C280.873 23.144 282.547 22.8453 284.51 22.248L284.958 23.848C284.19 24.232 283.219 24.5733 282.046 24.872C280.894 25.1707 279.742 25.32 278.59 25.32C276.414 25.32 274.771 24.6587 273.662 23.336C272.574 21.992 272.03 20.2 272.03 17.96C272.03 15.3573 272.638 13.2667 273.854 11.688C275.07 10.1093 276.841 9.32 279.166 9.32C280.723 9.32 281.929 9.62933 282.782 10.248C283.657 10.8667 284.254 11.752 284.574 12.904C284.915 14.056 285.086 15.5173 285.086 17.288L274.814 17.928C274.857 19.656 275.273 20.9573 276.062 21.832C276.873 22.7067 278.014 23.144 279.486 23.144ZM278.75 11.432C277.811 11.432 277.065 11.5813 276.51 11.88C275.977 12.1573 275.582 12.6267 275.326 13.288C275.07 13.9493 274.899 14.888 274.814 16.104L282.462 15.432C282.462 14.152 282.174 13.1707 281.598 12.488C281.043 11.784 280.094 11.432 278.75 11.432ZM297.355 9.32C298.336 9.32 299.189 9.52267 299.915 9.928L299.659 13.96H297.803L297.451 11.944C297.195 11.7733 296.8 11.688 296.267 11.688C295.435 11.688 294.667 12.0613 293.963 12.808C293.259 13.5547 292.779 14.4507 292.523 15.496V21.864C292.523 22.312 292.565 22.6213 292.651 22.792C292.757 22.9413 292.96 23.0267 293.259 23.048L295.531 23.272V25H287.531V23.272L289.227 23.048C289.547 23.0267 289.749 22.9413 289.835 22.792C289.92 22.6213 289.963 22.312 289.963 21.864V12.712C289.963 12.2427 289.92 11.9333 289.835 11.784C289.749 11.6133 289.547 11.5173 289.227 11.496L287.595 11.304V9.64H292.075L292.395 12.68C292.864 11.7413 293.557 10.952 294.475 10.312C295.392 9.65067 296.352 9.32 297.355 9.32ZM301.535 20.328H303.391L303.647 22.664C304.671 23.112 305.781 23.336 306.975 23.336C307.829 23.336 308.554 23.1547 309.151 22.792C309.749 22.4293 310.047 21.832 310.047 21C310.047 20.5093 309.855 20.0933 309.471 19.752C309.087 19.3893 308.501 19.048 307.711 18.728L305.471 17.832C304.127 17.2987 303.146 16.7227 302.527 16.104C301.93 15.4853 301.631 14.632 301.631 13.544C301.631 12.1787 302.186 11.1333 303.295 10.408C304.405 9.68267 305.738 9.32 307.295 9.32C308.81 9.32 310.463 9.61867 312.255 10.216L311.999 13.96H310.175L309.759 11.624C308.714 11.304 307.701 11.144 306.719 11.144C304.97 11.144 304.095 11.816 304.095 13.16C304.095 13.736 304.298 14.216 304.703 14.6C305.13 14.9627 305.791 15.3253 306.687 15.688L308.671 16.456C310.058 17.0107 311.071 17.576 311.711 18.152C312.351 18.728 312.671 19.5173 312.671 20.52C312.671 21.5013 312.394 22.3547 311.839 23.08C311.306 23.8053 310.591 24.36 309.695 24.744C308.799 25.128 307.839 25.32 306.815 25.32C305.706 25.32 304.725 25.224 303.871 25.032C303.018 24.84 302.143 24.5627 301.247 24.2L301.535 20.328Z" fill="#335870"/>
</g>
<defs>
<filter id="filter0_d_88_204" x="0.696" y="0.0400391" width="315.975" height="40.96" filterUnits="userSpaceOnUse" color-interpolation-filters="sRGB">
<feFlood flood-opacity="0" result="BackgroundImageFix"/>
<feColorMatrix in="SourceAlpha" type="matrix" values="0 0 0 0 0 0 0 0 0 0 0 0 0 0 0 0 0 0 127 0" result="hardAlpha"/>
<feOffset dy="4"/>
<feGaussianBlur stdDeviation="2"/>
<feComposite in2="hardAlpha" operator="out"/>
<feColorMatrix type="matrix" values="0 0 0 0 0 0 0 0 0 0 0 0 0 0 0 0 0 0 0.25 0"/>
<feBlend mode="normal" in2="BackgroundImageFix" result="effect1_dropShadow_88_204"/>
<feBlend mode="normal" in="SourceGraphic" in2="effect1_dropShadow_88_204" result="shape"/>
</filter>
</defs>
</svg>
