<svg width="18" height="18" viewBox="0 0 18 18" fill="none" xmlns="http://www.w3.org/2000/svg">
<path fill-rule="evenodd" clip-rule="evenodd" d="M0.969783 15.8189C0.67689 16.1118 0.67689 16.5867 0.969783 16.8796C1.26268 17.1725 1.73755 17.1725 2.03044 16.8796L8.92467 9.98534L15.8189 16.8796C16.1118 17.1725 16.5867 17.1725 16.8796 16.8796C17.1725 16.5867 17.1725 16.1118 16.8796 15.8189L9.98534 8.92468L16.8797 2.03033C17.1726 1.73744 17.1726 1.26256 16.8797 0.96967C16.5868 0.676776 16.1119 0.676777 15.819 0.96967L8.92467 7.86402L2.03033 0.969674C1.73744 0.676781 1.26256 0.676781 0.96967 0.969674C0.676776 1.26257 0.676777 1.73744 0.96967 2.03033L7.86402 8.92468L0.969783 15.8189Z" fill="#004165"/>
</svg>
