<svg width="306" height="17" viewBox="0 0 306 17" fill="none" xmlns="http://www.w3.org/2000/svg">
<path d="M0.215909 8.72159C0.310606 8.00189 0.494318 7.39394 0.767045 6.89773C1.04356 6.40152 1.38826 6.02652 1.80114 5.77273C2.21402 5.51515 2.67803 5.38636 3.19318 5.38636C3.55303 5.38636 3.88068 5.46212 4.17614 5.61364C4.47538 5.76136 4.80492 6.01515 5.16477 6.375C5.35795 6.56818 5.52273 6.71591 5.65909 6.81818C5.79545 6.91667 5.96212 6.96591 6.15909 6.96591C6.43561 6.96591 6.67614 6.85985 6.88068 6.64773C7.08902 6.43561 7.22727 6.10227 7.29545 5.64773H9.15341C9.05871 6.36364 8.86932 6.9678 8.58523 7.46023C8.30492 7.95265 7.95644 8.32765 7.53977 8.58523C7.12311 8.83902 6.66477 8.96591 6.16477 8.96591C5.78598 8.96591 5.44886 8.88636 5.15341 8.72727C4.85795 8.56818 4.53598 8.31629 4.1875 7.97159C3.98295 7.76705 3.81439 7.62121 3.68182 7.53409C3.55303 7.44697 3.39015 7.40341 3.19318 7.40341C2.92803 7.40341 2.69129 7.50568 2.48295 7.71023C2.27462 7.91098 2.13636 8.24811 2.06818 8.72159H0.215909ZM10.1591 13L12.0909 1.36364H16.75C17.6061 1.36364 18.2992 1.49053 18.8295 1.74432C19.3636 1.99811 19.7367 2.35038 19.9489 2.80114C20.161 3.24811 20.2178 3.76326 20.1193 4.34659C20.0398 4.80114 19.8788 5.19886 19.6364 5.53977C19.3977 5.88068 19.1023 6.16098 18.75 6.38068C18.3977 6.60038 18.0152 6.75568 17.6023 6.84659L17.5795 6.96023C18.0189 6.97917 18.4148 7.10417 18.767 7.33523C19.1193 7.5625 19.3826 7.88447 19.5568 8.30114C19.7311 8.7178 19.7708 9.21212 19.6761 9.78409C19.5739 10.4015 19.3295 10.9527 18.9432 11.4375C18.5568 11.9186 18.0417 12.2992 17.3977 12.5795C16.7576 12.8598 16.0019 13 15.1307 13H10.1591ZM12.9602 10.9886H14.9659C15.6477 10.9886 16.1686 10.8561 16.5284 10.5909C16.8883 10.3258 17.1042 9.97538 17.1761 9.53977C17.2254 9.2178 17.1932 8.93371 17.0795 8.6875C16.9697 8.44129 16.7822 8.24811 16.517 8.10795C16.2557 7.9678 15.9242 7.89773 15.5227 7.89773H13.4659L12.9602 10.9886ZM13.75 6.23295H15.5739C15.9072 6.23295 16.2159 6.17424 16.5 6.05682C16.7879 5.93561 17.0246 5.76515 17.2102 5.54545C17.3996 5.32197 17.5189 5.05871 17.5682 4.75568C17.6364 4.33144 17.5417 3.99242 17.2841 3.73864C17.0303 3.48106 16.6326 3.35227 16.0909 3.35227H14.2273L13.75 6.23295ZM20.6918 13L22.1463 4.27273H24.4929L24.2372 5.79545H24.3281C24.5781 5.25379 24.9134 4.8447 25.3338 4.56818C25.758 4.28788 26.2145 4.14773 26.7031 4.14773C26.8243 4.14773 26.9512 4.1553 27.0838 4.17045C27.2202 4.18182 27.3414 4.20076 27.4474 4.22727L27.0838 6.38068C26.9777 6.3428 26.8262 6.3125 26.6293 6.28977C26.4361 6.26326 26.2524 6.25 26.0781 6.25C25.7259 6.25 25.3982 6.32765 25.0952 6.48295C24.7921 6.63447 24.5365 6.84659 24.3281 7.11932C24.1236 7.39205 23.9891 7.70644 23.9247 8.0625L23.1122 13H20.6918ZM27.2386 13L28.6932 4.27273H31.1136L29.6591 13H27.2386ZM30.1534 3.13636C29.7936 3.13636 29.4962 3.01705 29.2614 2.77841C29.0303 2.53598 28.9356 2.24811 28.9773 1.91477C29.0189 1.57386 29.1818 1.28598 29.4659 1.05114C29.75 0.812499 30.072 0.693181 30.4318 0.693181C30.7917 0.693181 31.0852 0.812499 31.3125 1.05114C31.5398 1.28598 31.6345 1.57386 31.5966 1.91477C31.5587 2.24811 31.3977 2.53598 31.1136 2.77841C30.8333 3.01705 30.5133 3.13636 30.1534 3.13636ZM34.8026 13.142C34.1359 13.142 33.562 12.9716 33.081 12.6307C32.6037 12.286 32.2628 11.7803 32.0582 11.1136C31.8575 10.4432 31.8385 9.62121 32.0014 8.64773C32.1681 7.64773 32.4673 6.81629 32.8991 6.15341C33.331 5.48674 33.8423 4.98864 34.4332 4.65909C35.0241 4.32576 35.6397 4.15909 36.2798 4.15909C36.7647 4.15909 37.1567 4.24242 37.456 4.40909C37.759 4.57197 37.992 4.77652 38.1548 5.02273C38.3177 5.26515 38.4313 5.50379 38.4957 5.73864H38.5696L39.3026 1.36364H41.7173L39.7855 13H37.3991L37.6321 11.6023H37.5298C37.3783 11.8447 37.1776 12.0852 36.9276 12.3239C36.6813 12.5587 36.3821 12.7538 36.0298 12.9091C35.6813 13.0644 35.2723 13.142 34.8026 13.142ZM35.8707 11.2159C36.2571 11.2159 36.6056 11.1098 36.9162 10.8977C37.2268 10.6818 37.4882 10.3807 37.7003 9.99432C37.9124 9.60795 38.0601 9.1553 38.1435 8.63636C38.2306 8.11742 38.2325 7.66667 38.1491 7.28409C38.0658 6.90151 37.9029 6.60606 37.6605 6.39773C37.4219 6.18939 37.1056 6.08523 36.7116 6.08523C36.3139 6.08523 35.9616 6.19318 35.6548 6.40909C35.3518 6.625 35.0999 6.92424 34.8991 7.30682C34.7022 7.68939 34.562 8.13258 34.4787 8.63636C34.3954 9.14394 34.3897 9.5928 34.4616 9.98295C34.5336 10.3693 34.687 10.6723 34.9219 10.892C35.1567 11.108 35.473 11.2159 35.8707 11.2159ZM45.1562 16.4545C44.3684 16.4545 43.7112 16.3466 43.1847 16.1307C42.6619 15.9186 42.2642 15.6288 41.9915 15.2614C41.7225 14.8939 41.5748 14.4811 41.5483 14.0227L43.8438 13.7216C43.8854 13.8996 43.965 14.0644 44.0824 14.2159C44.2036 14.3674 44.3759 14.4886 44.5994 14.5795C44.8267 14.6705 45.1203 14.7159 45.4801 14.7159C46.0066 14.7159 46.465 14.5871 46.8551 14.3295C47.2453 14.0758 47.4858 13.6496 47.5767 13.0511L47.8381 11.4545H47.7358C47.5919 11.697 47.3949 11.9261 47.1449 12.142C46.8987 12.358 46.5975 12.5341 46.2415 12.6705C45.8892 12.8068 45.482 12.875 45.0199 12.875C44.3608 12.875 43.7888 12.7235 43.304 12.4205C42.8229 12.1136 42.4744 11.6458 42.2585 11.017C42.0464 10.3845 42.0199 9.58523 42.179 8.61932C42.3456 7.63068 42.6449 6.80492 43.0767 6.14205C43.5085 5.47917 44.0199 4.98295 44.6108 4.65341C45.2017 4.32386 45.8172 4.15909 46.4574 4.15909C46.946 4.15909 47.34 4.24242 47.6392 4.40909C47.9422 4.57197 48.1752 4.77652 48.3381 5.02273C48.5009 5.26515 48.6165 5.50379 48.6847 5.73864H48.7812L49.0199 4.27273H51.4233L49.9574 13.0852C49.84 13.8314 49.5578 14.4527 49.1108 14.9489C48.6676 15.4489 48.1051 15.8239 47.4233 16.0739C46.7415 16.3277 45.9858 16.4545 45.1562 16.4545ZM46.0653 11.0568C46.4517 11.0568 46.7983 10.9602 47.1051 10.767C47.4157 10.5701 47.6752 10.2898 47.8835 9.92614C48.0919 9.55871 48.2377 9.11932 48.321 8.60795C48.4044 8.09659 48.4025 7.65341 48.3153 7.27841C48.232 6.89962 48.0691 6.60606 47.8267 6.39773C47.5881 6.18939 47.2737 6.08523 46.8835 6.08523C46.482 6.08523 46.1297 6.19318 45.8267 6.40909C45.5237 6.62121 45.2718 6.91667 45.071 7.29545C44.8741 7.67424 44.7358 8.11174 44.6562 8.60795C44.5729 9.11174 44.5691 9.54735 44.6449 9.91477C44.7244 10.2784 44.8816 10.5606 45.1165 10.7614C45.3513 10.9583 45.6676 11.0568 46.0653 11.0568ZM51.8949 13L53.3494 4.27273H55.7699L54.3153 13H51.8949ZM54.8097 3.13636C54.4498 3.13636 54.1525 3.01705 53.9176 2.77841C53.6866 2.53598 53.5919 2.24811 53.6335 1.91477C53.6752 1.57386 53.8381 1.28598 54.1222 1.05114C54.4063 0.812499 54.7282 0.693181 55.0881 0.693181C55.4479 0.693181 55.7415 0.812499 55.9688 1.05114C56.196 1.28598 56.2907 1.57386 56.2528 1.91477C56.215 2.24811 56.054 2.53598 55.7699 2.77841C55.4896 3.01705 55.1695 3.13636 54.8097 3.13636ZM59.527 7.95455L58.6861 13H56.2713L57.7259 4.27273H60.027L59.777 5.8125H59.8736C60.1501 5.30114 60.5402 4.89773 61.044 4.60227C61.5516 4.30682 62.1293 4.15909 62.777 4.15909C63.383 4.15909 63.8887 4.29167 64.294 4.55682C64.7031 4.82197 64.991 5.19886 65.1577 5.6875C65.3281 6.17614 65.3565 6.76136 65.2429 7.44318L64.3111 13H61.8906L62.7486 7.875C62.8357 7.34091 62.7675 6.92424 62.544 6.625C62.3243 6.32197 61.9702 6.17045 61.4815 6.17045C61.1558 6.17045 60.8565 6.24053 60.5838 6.38068C60.3111 6.52083 60.0819 6.72538 59.8963 6.99432C59.7145 7.25947 59.5914 7.57955 59.527 7.95455ZM69.5938 16.4545C68.8059 16.4545 68.1487 16.3466 67.6222 16.1307C67.0994 15.9186 66.7017 15.6288 66.429 15.2614C66.16 14.8939 66.0123 14.4811 65.9858 14.0227L68.2812 13.7216C68.3229 13.8996 68.4025 14.0644 68.5199 14.2159C68.6411 14.3674 68.8134 14.4886 69.0369 14.5795C69.2642 14.6705 69.5578 14.7159 69.9176 14.7159C70.4441 14.7159 70.9025 14.5871 71.2926 14.3295C71.6828 14.0758 71.9233 13.6496 72.0142 13.0511L72.2756 11.4545H72.1733C72.0294 11.697 71.8324 11.9261 71.5824 12.142C71.3362 12.358 71.035 12.5341 70.679 12.6705C70.3267 12.8068 69.9195 12.875 69.4574 12.875C68.7983 12.875 68.2263 12.7235 67.7415 12.4205C67.2604 12.1136 66.9119 11.6458 66.696 11.017C66.4839 10.3845 66.4574 9.58523 66.6165 8.61932C66.7831 7.63068 67.0824 6.80492 67.5142 6.14205C67.946 5.47917 68.4574 4.98295 69.0483 4.65341C69.6392 4.32386 70.2547 4.15909 70.8949 4.15909C71.3835 4.15909 71.7775 4.24242 72.0767 4.40909C72.3797 4.57197 72.6127 4.77652 72.7756 5.02273C72.9384 5.26515 73.054 5.50379 73.1222 5.73864H73.2188L73.4574 4.27273H75.8608L74.3949 13.0852C74.2775 13.8314 73.9953 14.4527 73.5483 14.9489C73.1051 15.4489 72.5426 15.8239 71.8608 16.0739C71.179 16.3277 70.4233 16.4545 69.5938 16.4545ZM70.5028 11.0568C70.8892 11.0568 71.2358 10.9602 71.5426 10.767C71.8532 10.5701 72.1127 10.2898 72.321 9.92614C72.5294 9.55871 72.6752 9.11932 72.7585 8.60795C72.8419 8.09659 72.84 7.65341 72.7528 7.27841C72.6695 6.89962 72.5066 6.60606 72.2642 6.39773C72.0256 6.18939 71.7112 6.08523 71.321 6.08523C70.9195 6.08523 70.5672 6.19318 70.2642 6.40909C69.9612 6.62121 69.7093 6.91667 69.5085 7.29545C69.3116 7.67424 69.1733 8.11174 69.0938 8.60795C69.0104 9.11174 69.0066 9.54735 69.0824 9.91477C69.1619 10.2784 69.3191 10.5606 69.554 10.7614C69.7888 10.9583 70.1051 11.0568 70.5028 11.0568ZM84.2628 13H80.081L82.0128 1.36364H86.1151C87.2855 1.36364 88.2571 1.60227 89.0298 2.07955C89.8063 2.55682 90.3537 3.24053 90.6719 4.13068C90.9901 5.01705 91.0469 6.07576 90.8423 7.30682C90.6454 8.49621 90.2533 9.51705 89.6662 10.3693C89.0791 11.2178 88.3272 11.8693 87.4105 12.3239C86.4938 12.7746 85.4446 13 84.2628 13ZM82.8935 10.892H84.4048C85.1359 10.892 85.776 10.7557 86.3253 10.483C86.8783 10.2102 87.331 9.78977 87.6832 9.22159C88.0393 8.65341 88.2912 7.92614 88.4389 7.03977C88.5791 6.19886 88.5696 5.51705 88.4105 4.99432C88.2552 4.4678 87.9541 4.08333 87.5071 3.84091C87.0601 3.5947 86.473 3.47159 85.7457 3.47159H84.1264L82.8935 10.892ZM91.6761 13L93.1307 4.27273H95.5511L94.0966 13H91.6761ZM94.5909 3.13636C94.2311 3.13636 93.9337 3.01705 93.6989 2.77841C93.4678 2.53598 93.3731 2.24811 93.4148 1.91477C93.4564 1.57386 93.6193 1.28598 93.9034 1.05114C94.1875 0.812499 94.5095 0.693181 94.8693 0.693181C95.2292 0.693181 95.5227 0.812499 95.75 1.05114C95.9773 1.28598 96.072 1.57386 96.0341 1.91477C95.9962 2.24811 95.8352 2.53598 95.5511 2.77841C95.2708 3.01705 94.9508 3.13636 94.5909 3.13636ZM104.325 6.76136L102.126 6.89773C102.115 6.70455 102.062 6.5322 101.967 6.38068C101.876 6.22538 101.742 6.10227 101.564 6.01136C101.39 5.92045 101.17 5.875 100.905 5.875C100.507 5.875 100.153 5.96591 99.8423 6.14773C99.5317 6.32955 99.3556 6.5625 99.3139 6.84659C99.2798 7.02841 99.3272 7.18182 99.456 7.30682C99.5848 7.43182 99.8442 7.53788 100.234 7.625L101.768 7.94318C102.587 8.11742 103.178 8.4072 103.541 8.8125C103.909 9.2178 104.039 9.74811 103.933 10.4034C103.839 10.9602 103.594 11.447 103.2 11.8636C102.806 12.2765 102.306 12.5985 101.7 12.8295C101.094 13.0568 100.422 13.1705 99.6832 13.1705C98.4976 13.1705 97.5961 12.928 96.9787 12.4432C96.3613 11.9583 96.0639 11.3011 96.0866 10.4716L98.4503 10.3466C98.4692 10.7027 98.5942 10.9716 98.8253 11.1534C99.0563 11.3314 99.3726 11.4223 99.7741 11.4261C100.225 11.4337 100.607 11.3409 100.922 11.1477C101.24 10.9508 101.42 10.7121 101.462 10.4318C101.492 10.2348 101.435 10.0758 101.291 9.95455C101.151 9.83333 100.893 9.73295 100.518 9.65341L99.0639 9.35227C98.2382 9.18182 97.6454 8.87689 97.2855 8.4375C96.9257 7.99811 96.8026 7.43939 96.9162 6.76136C97.0071 6.2197 97.2325 5.75568 97.5923 5.36932C97.956 4.97917 98.4238 4.67992 98.9957 4.47159C99.5715 4.26326 100.221 4.15909 100.945 4.15909C102.077 4.15909 102.929 4.39205 103.501 4.85795C104.077 5.32386 104.352 5.95833 104.325 6.76136ZM111.116 4.27273L110.815 6.09091H105.554L105.861 4.27273H111.116ZM107.395 2.18182H109.815L108.463 10.3182C108.425 10.5417 108.431 10.7159 108.48 10.8409C108.529 10.9621 108.611 11.0473 108.724 11.0966C108.842 11.1458 108.982 11.1705 109.145 11.1705C109.259 11.1705 109.374 11.161 109.491 11.142C109.609 11.1193 109.698 11.1023 109.759 11.0909L109.849 12.892C109.713 12.9337 109.529 12.9792 109.298 13.0284C109.071 13.0777 108.802 13.108 108.491 13.1193C107.901 13.142 107.401 13.0644 106.991 12.8864C106.582 12.7045 106.289 12.4261 106.111 12.0511C105.933 11.6761 105.895 11.2045 105.997 10.6364L107.395 2.18182ZM113.705 13.1648C113.152 13.1648 112.672 13.0682 112.267 12.875C111.866 12.678 111.57 12.3864 111.381 12C111.191 11.6136 111.144 11.1345 111.239 10.5625C111.322 10.0777 111.479 9.67235 111.71 9.34659C111.945 9.01705 112.231 8.75189 112.568 8.55114C112.905 8.35038 113.278 8.19697 113.688 8.09091C114.1 7.98485 114.527 7.91288 114.966 7.875C115.473 7.82197 115.886 7.77083 116.205 7.72159C116.527 7.67235 116.767 7.60227 116.926 7.51136C117.085 7.41667 117.182 7.27652 117.216 7.09091V7.05682C117.273 6.70076 117.206 6.42424 117.017 6.22727C116.831 6.02651 116.534 5.92614 116.125 5.92614C115.693 5.92614 115.326 6.02083 115.023 6.21023C114.723 6.39962 114.509 6.64015 114.381 6.93182L112.176 6.75C112.373 6.2197 112.67 5.76136 113.068 5.375C113.47 4.98485 113.953 4.68561 114.517 4.47727C115.081 4.26515 115.714 4.15909 116.415 4.15909C116.9 4.15909 117.352 4.21591 117.773 4.32955C118.197 4.44318 118.563 4.61932 118.869 4.85795C119.18 5.09659 119.403 5.40341 119.54 5.77841C119.68 6.14962 119.708 6.5947 119.625 7.11364L118.642 13H116.347L116.551 11.7898H116.483C116.297 12.0625 116.07 12.303 115.801 12.5114C115.532 12.7159 115.223 12.8769 114.875 12.9943C114.527 13.108 114.136 13.1648 113.705 13.1648ZM114.676 11.4943C115.028 11.4943 115.352 11.4242 115.648 11.2841C115.947 11.1402 116.193 10.947 116.386 10.7045C116.583 10.4621 116.708 10.1875 116.761 9.88068L116.909 8.95455C116.833 9.00379 116.723 9.04735 116.58 9.08523C116.439 9.12311 116.286 9.15909 116.119 9.19318C115.956 9.22348 115.792 9.25189 115.625 9.27841C115.458 9.30114 115.309 9.32386 115.176 9.34659C114.884 9.38826 114.623 9.45455 114.392 9.54545C114.161 9.63636 113.973 9.75947 113.83 9.91477C113.686 10.0663 113.597 10.2557 113.562 10.483C113.509 10.8125 113.587 11.0644 113.795 11.2386C114.008 11.4091 114.301 11.4943 114.676 11.4943ZM123.793 7.95455L122.952 13H120.537L121.991 4.27273H124.293L124.043 5.8125H124.139C124.416 5.30114 124.806 4.89773 125.31 4.60227C125.817 4.30682 126.395 4.15909 127.043 4.15909C127.649 4.15909 128.154 4.29167 128.56 4.55682C128.969 4.82197 129.257 5.19886 129.423 5.6875C129.594 6.17614 129.622 6.76136 129.509 7.44318L128.577 13H126.156L127.014 7.875C127.101 7.34091 127.033 6.92424 126.81 6.625C126.59 6.32197 126.236 6.17045 125.747 6.17045C125.421 6.17045 125.122 6.24053 124.849 6.38068C124.577 6.52083 124.348 6.72538 124.162 6.99432C123.98 7.25947 123.857 7.57955 123.793 7.95455ZM134.393 13.1705C133.496 13.1705 132.757 12.9811 132.178 12.6023C131.602 12.2197 131.198 11.6894 130.967 11.0114C130.74 10.3333 130.7 9.55303 130.848 8.67045C130.992 7.77652 131.293 6.99242 131.751 6.31818C132.21 5.64015 132.791 5.11174 133.496 4.73295C134.204 4.35038 135 4.15909 135.882 4.15909C136.643 4.15909 137.287 4.29735 137.814 4.57386C138.34 4.85038 138.727 5.23864 138.973 5.73864C139.219 6.23864 139.303 6.82576 139.223 7.5H136.945C136.948 7.06818 136.837 6.7178 136.609 6.44886C136.382 6.17992 136.049 6.04545 135.609 6.04545C135.231 6.04545 134.882 6.14773 134.564 6.35227C134.25 6.55303 133.982 6.84659 133.763 7.23295C133.547 7.61932 133.395 8.08712 133.308 8.63636C133.217 9.19318 133.215 9.66667 133.303 10.0568C133.39 10.447 133.556 10.7443 133.803 10.9489C134.049 11.1534 134.359 11.2557 134.734 11.2557C135.015 11.2557 135.274 11.1989 135.513 11.0852C135.755 10.9716 135.967 10.8068 136.149 10.5909C136.331 10.3712 136.471 10.108 136.57 9.80114H138.854C138.698 10.4716 138.416 11.0587 138.007 11.5625C137.602 12.0663 137.092 12.4602 136.479 12.7443C135.865 13.0284 135.17 13.1705 134.393 13.1705ZM143.818 13.1705C142.924 13.1705 142.184 12.9886 141.597 12.625C141.009 12.2576 140.597 11.7386 140.358 11.0682C140.123 10.3939 140.083 9.59659 140.239 8.67614C140.39 7.77841 140.695 6.99053 141.153 6.3125C141.616 5.63447 142.195 5.10606 142.892 4.72727C143.589 4.34848 144.366 4.15909 145.222 4.15909C145.797 4.15909 146.318 4.25189 146.784 4.4375C147.254 4.61932 147.644 4.89583 147.955 5.26705C148.265 5.63447 148.477 6.0947 148.591 6.64773C148.708 7.20076 148.706 7.84848 148.585 8.59091L148.477 9.25568H141.114L141.347 7.75568H146.438C146.494 7.4072 146.472 7.09848 146.369 6.82955C146.267 6.56061 146.097 6.35038 145.858 6.19886C145.619 6.04356 145.326 5.96591 144.977 5.96591C144.621 5.96591 144.288 6.05303 143.977 6.22727C143.667 6.40151 143.405 6.63068 143.193 6.91477C142.985 7.19508 142.85 7.5 142.79 7.82955L142.523 9.31818C142.447 9.77652 142.462 10.1572 142.568 10.4602C142.678 10.7633 142.867 10.9905 143.136 11.142C143.405 11.2898 143.746 11.3636 144.159 11.3636C144.428 11.3636 144.68 11.3258 144.915 11.25C145.153 11.1742 145.366 11.0625 145.551 10.9148C145.737 10.7633 145.888 10.5758 146.006 10.3523L148.216 10.5C148.011 11.0379 147.701 11.5076 147.284 11.9091C146.867 12.3068 146.366 12.6174 145.778 12.8409C145.195 13.0606 144.542 13.1705 143.818 13.1705ZM157.732 6.76136L155.533 6.89773C155.521 6.70455 155.468 6.5322 155.374 6.38068C155.283 6.22538 155.148 6.10227 154.97 6.01136C154.796 5.92045 154.576 5.875 154.311 5.875C153.913 5.875 153.559 5.96591 153.249 6.14773C152.938 6.32955 152.762 6.5625 152.72 6.84659C152.686 7.02841 152.733 7.18182 152.862 7.30682C152.991 7.43182 153.25 7.53788 153.641 7.625L155.175 7.94318C155.993 8.11742 156.584 8.4072 156.947 8.8125C157.315 9.2178 157.446 9.74811 157.339 10.4034C157.245 10.9602 157 11.447 156.607 11.8636C156.213 12.2765 155.713 12.5985 155.107 12.8295C154.5 13.0568 153.828 13.1705 153.089 13.1705C151.904 13.1705 151.002 12.928 150.385 12.4432C149.768 11.9583 149.47 11.3011 149.493 10.4716L151.857 10.3466C151.875 10.7027 152 10.9716 152.232 11.1534C152.463 11.3314 152.779 11.4223 153.18 11.4261C153.631 11.4337 154.014 11.3409 154.328 11.1477C154.646 10.9508 154.826 10.7121 154.868 10.4318C154.898 10.2348 154.841 10.0758 154.697 9.95455C154.557 9.83333 154.3 9.73295 153.925 9.65341L152.47 9.35227C151.644 9.18182 151.052 8.87689 150.692 8.4375C150.332 7.99811 150.209 7.43939 150.322 6.76136C150.413 6.2197 150.639 5.75568 150.999 5.36932C151.362 4.97917 151.83 4.67992 152.402 4.47159C152.978 4.26326 153.627 4.15909 154.351 4.15909C155.483 4.15909 156.336 4.39205 156.908 4.85795C157.483 5.32386 157.758 5.95833 157.732 6.76136ZM161.33 11.4091L161.153 12.0341C161.021 12.5341 160.845 13.0322 160.625 13.5284C160.409 14.0246 160.193 14.4754 159.977 14.8807C159.761 15.2898 159.591 15.6098 159.466 15.8409H157.898C157.981 15.625 158.104 15.3163 158.267 14.9148C158.434 14.517 158.602 14.0682 158.773 13.5682C158.947 13.0682 159.085 12.5606 159.188 12.0455L159.33 11.4091H161.33ZM166.472 13L168.403 1.36364H173.062C173.919 1.36364 174.612 1.49053 175.142 1.74432C175.676 1.99811 176.049 2.35038 176.261 2.80114C176.473 3.24811 176.53 3.76326 176.432 4.34659C176.352 4.80114 176.191 5.19886 175.949 5.53977C175.71 5.88068 175.415 6.16098 175.062 6.38068C174.71 6.60038 174.328 6.75568 173.915 6.84659L173.892 6.96023C174.331 6.97917 174.727 7.10417 175.08 7.33523C175.432 7.5625 175.695 7.88447 175.869 8.30114C176.044 8.7178 176.083 9.21212 175.989 9.78409C175.886 10.4015 175.642 10.9527 175.256 11.4375C174.869 11.9186 174.354 12.2992 173.71 12.5795C173.07 12.8598 172.314 13 171.443 13H166.472ZM169.273 10.9886H171.278C171.96 10.9886 172.481 10.8561 172.841 10.5909C173.201 10.3258 173.417 9.97538 173.489 9.53977C173.538 9.2178 173.506 8.93371 173.392 8.6875C173.282 8.44129 173.095 8.24811 172.83 8.10795C172.568 7.9678 172.237 7.89773 171.835 7.89773H169.778L169.273 10.9886ZM170.062 6.23295H171.886C172.22 6.23295 172.528 6.17424 172.812 6.05682C173.1 5.93561 173.337 5.76515 173.523 5.54545C173.712 5.32197 173.831 5.05871 173.881 4.75568C173.949 4.33144 173.854 3.99242 173.597 3.73864C173.343 3.48106 172.945 3.35227 172.403 3.35227H170.54L170.062 6.23295ZM181.357 1.36364L179.425 13H177.004L178.936 1.36364H181.357ZM185.318 13.1705C184.424 13.1705 183.684 12.9886 183.097 12.625C182.509 12.2576 182.097 11.7386 181.858 11.0682C181.623 10.3939 181.583 9.59659 181.739 8.67614C181.89 7.77841 182.195 6.99053 182.653 6.3125C183.116 5.63447 183.695 5.10606 184.392 4.72727C185.089 4.34848 185.866 4.15909 186.722 4.15909C187.297 4.15909 187.818 4.25189 188.284 4.4375C188.754 4.61932 189.144 4.89583 189.455 5.26705C189.765 5.63447 189.977 6.0947 190.091 6.64773C190.208 7.20076 190.206 7.84848 190.085 8.59091L189.977 9.25568H182.614L182.847 7.75568H187.938C187.994 7.4072 187.972 7.09848 187.869 6.82955C187.767 6.56061 187.597 6.35038 187.358 6.19886C187.119 6.04356 186.826 5.96591 186.477 5.96591C186.121 5.96591 185.788 6.05303 185.477 6.22727C185.167 6.40151 184.905 6.63068 184.693 6.91477C184.485 7.19508 184.35 7.5 184.29 7.82955L184.023 9.31818C183.947 9.77652 183.962 10.1572 184.068 10.4602C184.178 10.7633 184.367 10.9905 184.636 11.142C184.905 11.2898 185.246 11.3636 185.659 11.3636C185.928 11.3636 186.18 11.3258 186.415 11.25C186.653 11.1742 186.866 11.0625 187.051 10.9148C187.237 10.7633 187.388 10.5758 187.506 10.3523L189.716 10.5C189.511 11.0379 189.201 11.5076 188.784 11.9091C188.367 12.3068 187.866 12.6174 187.278 12.8409C186.695 13.0606 186.042 13.1705 185.318 13.1705ZM194.214 7.95455L193.374 13H190.959L192.413 4.27273H194.714L194.464 5.8125H194.561C194.838 5.30114 195.228 4.89773 195.732 4.60227C196.239 4.30682 196.817 4.15909 197.464 4.15909C198.071 4.15909 198.576 4.29167 198.982 4.55682C199.391 4.82197 199.679 5.19886 199.845 5.6875C200.016 6.17614 200.044 6.76136 199.93 7.44318L198.999 13H196.578L197.436 7.875C197.523 7.34091 197.455 6.92424 197.232 6.625C197.012 6.32197 196.658 6.17045 196.169 6.17045C195.843 6.17045 195.544 6.24053 195.271 6.38068C194.999 6.52083 194.769 6.72538 194.584 6.99432C194.402 7.25947 194.279 7.57955 194.214 7.95455ZM204.099 13.142C203.433 13.142 202.859 12.9716 202.378 12.6307C201.901 12.286 201.56 11.7803 201.355 11.1136C201.154 10.4432 201.135 9.62121 201.298 8.64773C201.465 7.64773 201.764 6.81629 202.196 6.15341C202.628 5.48674 203.139 4.98864 203.73 4.65909C204.321 4.32576 204.937 4.15909 205.577 4.15909C206.062 4.15909 206.454 4.24242 206.753 4.40909C207.056 4.57197 207.289 4.77652 207.452 5.02273C207.615 5.26515 207.728 5.50379 207.793 5.73864H207.866L208.599 1.36364H211.014L209.082 13H206.696L206.929 11.6023H206.827C206.675 11.8447 206.474 12.0852 206.224 12.3239C205.978 12.5587 205.679 12.7538 205.327 12.9091C204.978 13.0644 204.569 13.142 204.099 13.142ZM205.168 11.2159C205.554 11.2159 205.902 11.1098 206.213 10.8977C206.524 10.6818 206.785 10.3807 206.997 9.99432C207.209 9.60795 207.357 9.1553 207.44 8.63636C207.527 8.11742 207.529 7.66667 207.446 7.28409C207.363 6.90151 207.2 6.60606 206.957 6.39773C206.719 6.18939 206.402 6.08523 206.009 6.08523C205.611 6.08523 205.259 6.19318 204.952 6.40909C204.649 6.625 204.397 6.92424 204.196 7.30682C203.999 7.68939 203.859 8.13258 203.776 8.63636C203.692 9.14394 203.687 9.5928 203.759 9.98295C203.83 10.3693 203.984 10.6723 204.219 10.892C204.454 11.108 204.77 11.2159 205.168 11.2159ZM211.067 13L212.521 4.27273H214.942L213.487 13H211.067ZM213.982 3.13636C213.622 3.13636 213.324 3.01705 213.089 2.77841C212.858 2.53598 212.764 2.24811 212.805 1.91477C212.847 1.57386 213.01 1.28598 213.294 1.05114C213.578 0.812499 213.9 0.693181 214.26 0.693181C214.62 0.693181 214.913 0.812499 215.141 1.05114C215.368 1.28598 215.463 1.57386 215.425 1.91477C215.387 2.24811 215.226 2.53598 214.942 2.77841C214.661 3.01705 214.341 3.13636 213.982 3.13636ZM218.699 7.95455L217.858 13H215.443L216.898 4.27273H219.199L218.949 5.8125H219.045C219.322 5.30114 219.712 4.89773 220.216 4.60227C220.723 4.30682 221.301 4.15909 221.949 4.15909C222.555 4.15909 223.061 4.29167 223.466 4.55682C223.875 4.82197 224.163 5.19886 224.33 5.6875C224.5 6.17614 224.528 6.76136 224.415 7.44318L223.483 13H221.062L221.92 7.875C222.008 7.34091 221.939 6.92424 221.716 6.625C221.496 6.32197 221.142 6.17045 220.653 6.17045C220.328 6.17045 220.028 6.24053 219.756 6.38068C219.483 6.52083 219.254 6.72538 219.068 6.99432C218.886 7.25947 218.763 7.57955 218.699 7.95455ZM228.766 16.4545C227.978 16.4545 227.321 16.3466 226.794 16.1307C226.271 15.9186 225.874 15.6288 225.601 15.2614C225.332 14.8939 225.184 14.4811 225.158 14.0227L227.453 13.7216C227.495 13.8996 227.574 14.0644 227.692 14.2159C227.813 14.3674 227.985 14.4886 228.209 14.5795C228.436 14.6705 228.73 14.7159 229.089 14.7159C229.616 14.7159 230.074 14.5871 230.464 14.3295C230.855 14.0758 231.095 13.6496 231.186 13.0511L231.447 11.4545H231.345C231.201 11.697 231.004 11.9261 230.754 12.142C230.508 12.358 230.207 12.5341 229.851 12.6705C229.499 12.8068 229.091 12.875 228.629 12.875C227.97 12.875 227.398 12.7235 226.913 12.4205C226.432 12.1136 226.084 11.6458 225.868 11.017C225.656 10.3845 225.629 9.58523 225.788 8.61932C225.955 7.63068 226.254 6.80492 226.686 6.14205C227.118 5.47917 227.629 4.98295 228.22 4.65341C228.811 4.32386 229.427 4.15909 230.067 4.15909C230.555 4.15909 230.949 4.24242 231.249 4.40909C231.552 4.57197 231.785 4.77652 231.947 5.02273C232.11 5.26515 232.226 5.50379 232.294 5.73864H232.391L232.629 4.27273H235.033L233.567 13.0852C233.449 13.8314 233.167 14.4527 232.72 14.9489C232.277 15.4489 231.714 15.8239 231.033 16.0739C230.351 16.3277 229.595 16.4545 228.766 16.4545ZM229.675 11.0568C230.061 11.0568 230.408 10.9602 230.714 10.767C231.025 10.5701 231.285 10.2898 231.493 9.92614C231.701 9.55871 231.847 9.11932 231.93 8.60795C232.014 8.09659 232.012 7.65341 231.925 7.27841C231.841 6.89962 231.679 6.60606 231.436 6.39773C231.197 6.18939 230.883 6.08523 230.493 6.08523C230.091 6.08523 229.739 6.19318 229.436 6.40909C229.133 6.62121 228.881 6.91667 228.68 7.29545C228.483 7.67424 228.345 8.11174 228.266 8.60795C228.182 9.11174 228.179 9.54735 228.254 9.91477C228.334 10.2784 228.491 10.5606 228.726 10.7614C228.961 10.9583 229.277 11.0568 229.675 11.0568ZM250.764 5.4375H248.31C248.317 5.11174 248.276 4.82386 248.185 4.57386C248.094 4.32008 247.957 4.10417 247.776 3.92614C247.598 3.74811 247.38 3.61364 247.122 3.52273C246.865 3.42803 246.575 3.38068 246.253 3.38068C245.632 3.38068 245.062 3.53598 244.543 3.84659C244.024 4.1572 243.586 4.60795 243.23 5.19886C242.874 5.78598 242.628 6.49621 242.491 7.32955C242.359 8.13258 242.366 8.80492 242.514 9.34659C242.662 9.88826 242.923 10.2973 243.298 10.5739C243.677 10.8466 244.149 10.983 244.713 10.983C245.062 10.983 245.393 10.9394 245.707 10.8523C246.022 10.7614 246.308 10.6326 246.565 10.4659C246.827 10.2955 247.054 10.089 247.247 9.84659C247.444 9.60417 247.598 9.32955 247.707 9.02273H250.179C250.024 9.55682 249.781 10.072 249.452 10.5682C249.126 11.0644 248.723 11.5076 248.241 11.8977C247.76 12.2841 247.213 12.5909 246.599 12.8182C245.986 13.0455 245.313 13.1591 244.582 13.1591C243.526 13.1591 242.618 12.9167 241.861 12.4318C241.107 11.947 240.563 11.2481 240.23 10.3352C239.897 9.42235 239.834 8.32197 240.043 7.03409C240.251 5.78788 240.658 4.73106 241.264 3.86364C241.874 2.99242 242.615 2.33144 243.486 1.88068C244.361 1.42992 245.296 1.20455 246.293 1.20455C246.986 1.20455 247.613 1.29924 248.173 1.48864C248.734 1.67803 249.211 1.95455 249.605 2.31818C250.003 2.67803 250.302 3.11932 250.503 3.64205C250.704 4.16477 250.791 4.76326 250.764 5.4375ZM257.455 9.28409L258.29 4.27273H260.71L259.256 13H256.932L257.193 11.4148H257.102C256.833 11.9261 256.441 12.3371 255.926 12.6477C255.411 12.9583 254.826 13.1136 254.17 13.1136C253.587 13.1136 253.095 12.9811 252.693 12.7159C252.295 12.4508 252.013 12.0739 251.847 11.5852C251.68 11.0966 251.652 10.5114 251.761 9.82955L252.693 4.27273H255.114L254.261 9.39773C254.182 9.91288 254.254 10.3201 254.477 10.6193C254.701 10.9186 255.042 11.0682 255.5 11.0682C255.792 11.0682 256.074 11.0019 256.347 10.8693C256.623 10.733 256.862 10.5322 257.062 10.267C257.263 10.0019 257.394 9.67424 257.455 9.28409ZM265.544 1.36364L263.612 13H261.192L263.124 1.36364H265.544ZM271.648 4.27273L271.347 6.09091H266.085L266.392 4.27273H271.648ZM267.926 2.18182H270.347L268.994 10.3182C268.956 10.5417 268.962 10.7159 269.011 10.8409C269.061 10.9621 269.142 11.0473 269.256 11.0966C269.373 11.1458 269.513 11.1705 269.676 11.1705C269.79 11.1705 269.905 11.161 270.023 11.142C270.14 11.1193 270.229 11.1023 270.29 11.0909L270.381 12.892C270.244 12.9337 270.061 12.9792 269.83 13.0284C269.602 13.0777 269.333 13.108 269.023 13.1193C268.432 13.142 267.932 13.0644 267.523 12.8864C267.114 12.7045 266.82 12.4261 266.642 12.0511C266.464 11.6761 266.426 11.2045 266.528 10.6364L267.926 2.18182ZM277.986 9.28409L278.821 4.27273H281.241L279.787 13H277.463L277.724 11.4148H277.634C277.365 11.9261 276.973 12.3371 276.457 12.6477C275.942 12.9583 275.357 13.1136 274.702 13.1136C274.118 13.1136 273.626 12.9811 273.224 12.7159C272.827 12.4508 272.545 12.0739 272.378 11.5852C272.211 11.0966 272.183 10.5114 272.293 9.82955L273.224 4.27273H275.645L274.793 9.39773C274.713 9.91288 274.785 10.3201 275.009 10.6193C275.232 10.9186 275.573 11.0682 276.031 11.0682C276.323 11.0682 276.605 11.0019 276.878 10.8693C277.154 10.733 277.393 10.5322 277.594 10.267C277.795 10.0019 277.925 9.67424 277.986 9.28409ZM281.723 13L283.178 4.27273H285.524L285.268 5.79545H285.359C285.609 5.25379 285.945 4.8447 286.365 4.56818C286.789 4.28788 287.246 4.14773 287.734 4.14773C287.856 4.14773 287.982 4.1553 288.115 4.17045C288.251 4.18182 288.373 4.20076 288.479 4.22727L288.115 6.38068C288.009 6.3428 287.857 6.3125 287.661 6.28977C287.467 6.26326 287.284 6.25 287.109 6.25C286.757 6.25 286.429 6.32765 286.126 6.48295C285.823 6.63447 285.568 6.84659 285.359 7.11932C285.155 7.39205 285.02 7.70644 284.956 8.0625L284.143 13H281.723ZM291.818 13.1705C290.924 13.1705 290.184 12.9886 289.597 12.625C289.009 12.2576 288.597 11.7386 288.358 11.0682C288.123 10.3939 288.083 9.59659 288.239 8.67614C288.39 7.77841 288.695 6.99053 289.153 6.3125C289.616 5.63447 290.195 5.10606 290.892 4.72727C291.589 4.34848 292.366 4.15909 293.222 4.15909C293.797 4.15909 294.318 4.25189 294.784 4.4375C295.254 4.61932 295.644 4.89583 295.955 5.26705C296.265 5.63447 296.477 6.0947 296.591 6.64773C296.708 7.20076 296.706 7.84848 296.585 8.59091L296.477 9.25568H289.114L289.347 7.75568H294.438C294.494 7.4072 294.472 7.09848 294.369 6.82955C294.267 6.56061 294.097 6.35038 293.858 6.19886C293.619 6.04356 293.326 5.96591 292.977 5.96591C292.621 5.96591 292.288 6.05303 291.977 6.22727C291.667 6.40151 291.405 6.63068 291.193 6.91477C290.985 7.19508 290.85 7.5 290.79 7.82955L290.523 9.31818C290.447 9.77652 290.462 10.1572 290.568 10.4602C290.678 10.7633 290.867 10.9905 291.136 11.142C291.405 11.2898 291.746 11.3636 292.159 11.3636C292.428 11.3636 292.68 11.3258 292.915 11.25C293.153 11.1742 293.366 11.0625 293.551 10.9148C293.737 10.7633 293.888 10.5758 294.006 10.3523L296.216 10.5C296.011 11.0379 295.701 11.5076 295.284 11.9091C294.867 12.3068 294.366 12.6174 293.778 12.8409C293.195 13.0606 292.542 13.1705 291.818 13.1705ZM305.732 6.76136L303.533 6.89773C303.521 6.70455 303.468 6.5322 303.374 6.38068C303.283 6.22538 303.148 6.10227 302.97 6.01136C302.796 5.92045 302.576 5.875 302.311 5.875C301.913 5.875 301.559 5.96591 301.249 6.14773C300.938 6.32955 300.762 6.5625 300.72 6.84659C300.686 7.02841 300.733 7.18182 300.862 7.30682C300.991 7.43182 301.25 7.53788 301.641 7.625L303.175 7.94318C303.993 8.11742 304.584 8.4072 304.947 8.8125C305.315 9.2178 305.446 9.74811 305.339 10.4034C305.245 10.9602 305 11.447 304.607 11.8636C304.213 12.2765 303.713 12.5985 303.107 12.8295C302.5 13.0568 301.828 13.1705 301.089 13.1705C299.904 13.1705 299.002 12.928 298.385 12.4432C297.768 11.9583 297.47 11.3011 297.493 10.4716L299.857 10.3466C299.875 10.7027 300 10.9716 300.232 11.1534C300.463 11.3314 300.779 11.4223 301.18 11.4261C301.631 11.4337 302.014 11.3409 302.328 11.1477C302.646 10.9508 302.826 10.7121 302.868 10.4318C302.898 10.2348 302.841 10.0758 302.697 9.95455C302.557 9.83333 302.3 9.73295 301.925 9.65341L300.47 9.35227C299.644 9.18182 299.052 8.87689 298.692 8.4375C298.332 7.99811 298.209 7.43939 298.322 6.76136C298.413 6.2197 298.639 5.75568 298.999 5.36932C299.362 4.97917 299.83 4.67992 300.402 4.47159C300.978 4.26326 301.627 4.15909 302.351 4.15909C303.483 4.15909 304.336 4.39205 304.908 4.85795C305.483 5.32386 305.758 5.95833 305.732 6.76136Z" fill="#335870"/>
</svg>
